# xmcd
#
# Track frame offsets: 
#        150
#        17885
#        36870
#        52714
#        69097
#        87360
#        107837
#        125390
#        143460
#        162695
#        178065
#        190915
#
# Disc length: 2737 seconds
#
# Revision: 1
# Processed by: cddbd v1.5.2PL0 Copyright (c) Steve Scherf et al.
# Submitted via: ExactAudioCopy v0.99pb4
#
DISCID=9b0aaf0c
DTITLE=Reba McEntire - If You See Him [dts]
DYEAR=1998
DGENRE=Country
TTITLE0=If You See Him, If You See Her
TTITLE1=One Honest Heart
TTITLE2=I Wouldn't Know
TTITLE3=I'll Give You Something to Miss
TTITLE4=Invisible
TTITLE5=Up and Flying
TTITLE6=Forever Love
TTITLE7=Face to Face
TTITLE8=Heart Hush
TTITLE9=Lonely Alone
TTITLE10=Wrong Night
TTITLE11=All This Time
EXTD=
EXTT0=
EXTT1=
EXTT2=
EXTT3=
EXTT4=
EXTT5=
EXTT6=
EXTT7=
EXTT8=
EXTT9=
EXTT10=
EXTT11=
PLAYORDER=
